<?xml version="1.0" encoding="UTF-8" standalone="no"?>
<!-- Created with Inkscape (http://www.inkscape.org/) -->

<svg
        width="10.583333mm"
        height="10.583333mm"
        viewBox="0 0 10.583333 10.583333"
        version="1.1"
        id="svg328"
        xmlns="http://www.w3.org/2000/svg"
>

    <defs
            id="defs325">
        <rect
                x="69.786095"
                y="56.024426"
                width="1.832932"
                height="4.0621967"
                id="rect10479"/>
    </defs>
    <g
            id="layer1"
            transform="translate(-11.101883,-11.250304)"
    >
        <rect
                style="fill:none;fill-rule:evenodd;stroke-width:0;stroke-dasharray:none;stroke:#8aabca;stroke-opacity:1"
                id="rect10888"
                width="10.583333"
                height="10.583333"
                x="11.101883"
                y="11.250304"
        />
        <g
                id="use7483"
                style="stroke-width:0.26458333;stroke-dasharray:none"
                transform="translate(0.69984747)">
            <rect
                    style="fill:#c8c8a9;fill-opacity:1;fill-rule:evenodd;stroke:#83af9b;stroke-width:0.26458333;stroke-dasharray:none;stroke-opacity:1"
                    id="rect6913"
                    width="8.9958334"
                    height="8.9958334"
                    x="11.106153"
                    y="12.180938"
                    rx="1.3229166"
            />
        </g>
        <ellipse
                style="fill:#ffffff;fill-opacity:1;stroke:none;stroke-width:0.264583;stroke-dasharray:none;stroke-opacity:1"
                id="path7507"
                cx="15.724504"
                cy="14.82313"
                rx="3.4395833"
                ry="2.1166666"/>
        <path
                style="fill:#ffffff;fill-opacity:1;stroke:none;stroke-width:0.264583;stroke-dasharray:none;stroke-opacity:1"
                id="path10181"
                d="m 15.796768,16.90369 c -0.133924,0.02766 -0.25969,0.08426 -0.385564,0.136099 -0.235706,0.08768 -0.456666,0.206981 -0.674948,0.330544 -0.225824,0.136801 -0.443679,0.285706 -0.65911,0.438168 -0.128169,0.08964 -0.245712,0.192662 -0.359022,0.300105 -0.04292,0.01867 -0.135746,0.154121 -0.178997,0.149857 -0.0064,-6.35e-4 -0.0086,-0.0096 -0.01293,-0.01436 0.06991,0.0362 0.134761,0.08455 0.209721,0.108606 0.01477,0.0047 -0.0089,-0.02978 -0.01165,-0.04505 -0.01472,-0.08262 -0.0036,-0.164936 0.01062,-0.24662 0.02898,-0.150904 0.09545,-0.285791 0.164952,-0.420903 0.08535,-0.166983 0.199149,-0.315293 0.311135,-0.464641 0.09746,-0.126579 0.211082,-0.234609 0.354796,-0.305333 0.068,-0.0306 0.129871,-0.07265 0.197714,-0.103279 0,0 -0.217047,-0.1435 -0.217047,-0.1435 v 0 c -0.06648,0.03278 -0.128737,0.07342 -0.195552,0.10572 -0.143665,0.07677 -0.259331,0.18778 -0.358231,0.316862 -0.112499,0.150657 -0.225936,0.300968 -0.314103,0.467783 -0.07115,0.137083 -0.139089,0.273624 -0.170252,0.426637 -0.01628,0.08506 -0.02524,0.167468 -0.01676,0.254021 0.0017,0.01706 -0.0068,0.03982 0.0062,0.05105 0.07168,0.06215 0.157369,0.106005 0.236054,0.159007 0.08648,-0.01126 0.131886,-0.118923 0.203004,-0.161098 0.111811,-0.106598 0.227402,-0.209301 0.352811,-0.299871 0.212468,-0.154855 0.429083,-0.303363 0.655549,-0.437264 0.218136,-0.123737 0.439727,-0.241169 0.676692,-0.325472 0.127259,-0.05082 0.254736,-0.105188 0.390596,-0.128308 0,0 -0.215655,-0.14875 -0.215655,-0.14875 z"/>
        <path
                style="fill:#ffffff;fill-opacity:1;stroke:none;stroke-width:0.264583;stroke-dasharray:none;stroke-opacity:1"
                id="path10193"
                d="m 15.812531,19.671421 c 0.0539,-0.01376 0.107124,-0.03055 0.16171,-0.04129 0.562777,-0.110775 1.137561,-0.160085 1.708688,-0.202737 0.67279,-0.05025 0.997654,-0.06018 1.676223,-0.09134 0,0 -0.132681,-0.0955 -0.132681,-0.0955 v 0 c -0.810894,0.03526 -1.621531,0.07003 -2.430518,0.138143 -0.298536,0.02513 -0.712994,0.06605 -1.022462,0.11232 -0.05883,0.0088 -0.116632,0.02348 -0.174948,0.03521 0,0 0.213988,0.145188 0.213988,0.145188 z"/>
        <path
                style="fill:#ffffff;fill-opacity:1;stroke:none;stroke-width:0.264583;stroke-dasharray:none;stroke-opacity:1"
                id="path10201"
                d="m 18.073666,18.563297 c 0.49326,0.352241 1.03774,0.622395 1.575381,0.89812 0,0 -0.146105,-0.117167 -0.146105,-0.117167 v 0 c -0.411255,-0.213169 -0.831727,-0.413004 -1.204278,-0.691911 0,0 -0.224998,-0.08904 -0.224998,-0.08904 z"/>
        <path
                style="fill:#ffffff;fill-opacity:1;stroke:none;stroke-width:0.264583;stroke-dasharray:none;stroke-opacity:1"
                id="path10205"
                d="m 18.14184,20.157577 c 0.537428,-0.228012 1.070261,-0.464307 1.594509,-0.721327 0,0 -0.191082,-0.125782 -0.191082,-0.125782 v 0 c -0.525987,0.26541 -1.062405,0.508146 -1.618615,0.704118 0,0 0.215188,0.142991 0.215188,0.142991 z"/>
        <text
                xml:space="preserve"
                style="font-size:1.05833px;fill:#000000;fill-opacity:1;stroke:none;stroke-width:0.264583;stroke-dasharray:none;stroke-opacity:1"
                x="13.23729"
                y="14.448359"
                id="text10423"><tspan
         id="tspan10421"
         style="font-size:1.05833px;stroke-width:0.264583"
         x="13.23729"
         y="14.448359">Comment</tspan>
            <tspan
                    style="font-size:1.05833px;stroke-width:0.264583"
                    x="13.23729"
                    y="15.771271"
                    id="tspan10425">   Book</tspan></text>
    </g>
</svg>
